<?xml version="1.0" encoding="UTF-8" standalone="no"?>
<!-- Created with Inkscape (http://www.inkscape.org/) -->

<svg
   xmlns:dc="http://purl.org/dc/elements/1.1/"
   xmlns:cc="http://creativecommons.org/ns#"
   xmlns:rdf="http://www.w3.org/1999/02/22-rdf-syntax-ns#"
   xmlns:svg="http://www.w3.org/2000/svg"
   xmlns="http://www.w3.org/2000/svg"
   xmlns:xlink="http://www.w3.org/1999/xlink"
   xmlns:sodipodi="http://sodipodi.sourceforge.net/DTD/sodipodi-0.dtd"
   xmlns:inkscape="http://www.inkscape.org/namespaces/inkscape"
   width="1493.1035"
   height="294.88693"
   viewBox="0 0 395.0503 78.022169"
   version="1.1"
   id="svg845"
   inkscape:version="0.92.3 (2405546, 2018-03-11)"
   sodipodi:docname="bx-loading.svg">
  <defs
     id="defs839">
    <linearGradient
       y2="256.00034"
       y1="256.00034"
       x2="511.98407"
       x1="0.0010737195"
       gradientUnits="userSpaceOnUse"
       id="linearGradient5939"
       gradientTransform="matrix(0.14970801,0,0,0.14970801,14.236301,141.27485)">
      <stop
         id="stop5927"
         stop-color="#00f2fe"
         offset="0"
         style="stop-color:#4eadfe;stop-opacity:1" />
      <stop
         id="stop5929"
         stop-color="#03effe"
         offset=".0208"
         style="stop-color:#4eadfe;stop-opacity:1" />
      <stop
         id="stop5931"
         stop-color="#24d2fe"
         offset="0.36414331"
         style="stop-color:#40bafe;stop-opacity:1" />
      <stop
         id="stop5933"
         stop-color="#3cbdfe"
         offset=".5538"
         style="stop-color:#2bccfe;stop-opacity:1" />
      <stop
         id="stop5935"
         stop-color="#4ab0fe"
         offset=".7956"
         style="stop-color:#1cd9fe;stop-opacity:1" />
      <stop
         id="stop5937"
         stop-color="#4facfe"
         offset="1"
         style="stop-color:#02f0fe;stop-opacity:1" />
    </linearGradient>
    <linearGradient
       gradientTransform="matrix(0.14970801,0,0,0.14970801,14.236301,141.27485)"
       id="a"
       gradientUnits="userSpaceOnUse"
       x1="0.0010737195"
       x2="511.98407"
       y1="256.00034"
       y2="256.00034">
      <stop
         offset="0"
         stop-color="#00f2fe"
         id="stop1610" />
      <stop
         offset=".0208"
         stop-color="#03effe"
         id="stop1612" />
      <stop
         offset=".2931"
         stop-color="#24d2fe"
         id="stop1614" />
      <stop
         offset=".5538"
         stop-color="#3cbdfe"
         id="stop1616" />
      <stop
         offset=".7956"
         stop-color="#4ab0fe"
         id="stop1618" />
      <stop
         offset="1"
         stop-color="#4facfe"
         id="stop1620" />
    </linearGradient>
    <linearGradient
       inkscape:collect="always"
       xlink:href="#a"
       id="linearGradient5953"
       gradientUnits="userSpaceOnUse"
       gradientTransform="matrix(0.14970801,0,0,0.14970801,14.236301,141.27485)"
       x1="0.0010737195"
       y1="256.00034"
       x2="511.98407"
       y2="256.00034" />
  </defs>
  <sodipodi:namedview
     id="base"
     pagecolor="#ffffff"
     bordercolor="#666666"
     borderopacity="1.0"
     inkscape:pageopacity="0.0"
     inkscape:pageshadow="2"
     inkscape:zoom="1"
     inkscape:cx="743.30555"
     inkscape:cy="42.815315"
     inkscape:document-units="mm"
     inkscape:current-layer="layer1"
     showgrid="false"
     units="px"
     fit-margin-top="0"
     fit-margin-left="0"
     fit-margin-right="0"
     fit-margin-bottom="0"
     inkscape:window-width="1920"
     inkscape:window-height="996"
     inkscape:window-x="-8"
     inkscape:window-y="-8"
     inkscape:window-maximized="1" />
  <metadata
     id="metadata842">
    <rdf:RDF>
      <cc:Work
         rdf:about="">
        <dc:format>image/svg+xml</dc:format>
        <dc:type
           rdf:resource="http://purl.org/dc/dcmitype/StillImage" />
        <dc:title></dc:title>
      </cc:Work>
    </rdf:RDF>
  </metadata>
  <g
     inkscape:groupmode="layer"
     id="layer2"
     inkscape:label="bg"
     style="display:none">
    <path
       style="opacity:0.16400003;fill:#000000;fill-opacity:1"
       d="m 66.28339,288.58028 c -17.619165,-2.57754 -33.369226,-17.93852 -36.701808,-35.79515 -0.598393,-3.20631 -1.00528,-28.28694 -1.00528,-61.96584 v -56.57935 l -5.25,5.10125 c -5.745126,5.58236 -8.531441,7.33043 -11.684258,7.33043 -1.9752809,0 -2.0657419,-0.53667 -2.0657419,-12.25507 v -12.25507 l 36.9999999,-36.989863 37,-36.989864 v 15.506298 15.506298 l -16.516886,16.488634 -16.516887,16.488637 0.266887,69.57907 0.266886,69.57908 3.026436,4.89449 c 1.850875,2.99332 4.885478,6.04385 7.812473,7.85347 4.059562,2.50983 6.066776,3.0262 13.223565,3.40184 l 8.437526,0.44285 v 10.8746 10.8746 l -5.75,-0.12194 c -3.1625,-0.0671 -8.35681,-0.5033 -11.542912,-0.9694 z"
       id="path5956"
       inkscape:connector-curvature="0"
       transform="scale(0.26458333)" />
    <rect
       style="opacity:1;fill:#333333;fill-opacity:1;stroke-width:0.32831493"
       id="rect5962"
       width="407.72293"
       height="91.545837"
       x="-5.0270834"
       y="-5.3215823"
       rx="12.831584" />
  </g>
  <g
     inkscape:label="Layer 1"
     inkscape:groupmode="layer"
     id="layer1"
     transform="translate(-14.236535,-141.27483)">
    <path
       inkscape:connector-curvature="0"
       style="fill:url(#linearGradient5953);stroke-width:0.149708"
       d="m 90.00025,179.32992 c -0.583627,0.58012 -1.347373,0.87018 -2.109948,0.87018 -0.769593,0 -1.538601,-0.29474 -2.123985,-0.88363 l -2.367255,-2.38246 v 14.04507 c 0,1.65322 -1.340358,2.99357 -2.994163,2.99357 -1.65322,0 -2.993573,-1.34035 -2.993573,-2.99357 V 170.90593 L 54.63992,147.98481 c -1.117546,-0.95731 -2.76258,-0.96024 -3.884222,-0.008 l -23.050357,23.00514 c 4.25e-4,0.0286 0.0042,0.0573 0.0042,0.0866 v 34.8808 c 0,3.30176 2.686559,5.98773 5.988322,5.98773 h 37.725233 c 3.301763,0 5.988322,-2.68597 5.988322,-5.98773 0,-1.65381 1.340353,-2.99417 2.993573,-2.99417 1.653805,0 2.994163,1.34036 2.994163,2.99417 0,6.60352 -5.372528,11.97605 -11.976058,11.97605 h -37.72525 c -6.603526,0 -11.976058,-5.37253 -11.976058,-11.97605 v -28.9954 l -2.376027,2.37135 c -1.170765,1.16784 -3.066092,1.16666 -4.234516,-0.004 -1.167839,-1.17018 -1.166085,-3.06609 0.0041,-4.23452 l 31.481279,-31.41894 c 0.04036,-0.0398 0.08128,-0.0789 0.123976,-0.11696 3.419308,-3.04445 8.567277,-3.03334 11.973715,0.0251 0.0421,0.038 0.08363,0.0772 0.123394,0.11754 l 31.196575,31.40242 c 1.1655,1.17311 1.159067,3.06902 -0.01405,4.23393 z m -40.28432,21.22989 c 0,1.6538 1.340353,2.99416 2.994158,2.99416 1.653806,0 2.994163,-1.34036 2.994163,-2.99416 0,-1.65381 -1.340357,-2.99417 -2.994163,-2.99417 -1.653219,0 -2.994158,1.34036 -2.994158,2.99417 z m 18.712915,-13.92226 c 0.757313,0 1.515207,-0.28538 2.098252,-0.8579 1.179534,-1.15907 1.196492,-3.05439 0.03802,-4.23393 -4.929253,-5.01931 -11.323424,-7.78306 -18.004724,-7.78248 -6.682475,0 -13.077232,2.76375 -18.004728,7.78248 -1.159068,1.17954 -1.141524,3.07545 0.03858,4.23393 1.179534,1.15848 3.074861,1.14152 4.233928,-0.0386 3.792996,-3.86258 8.669618,-5.99007 13.732204,-5.99007 5.061414,0 9.938037,2.12749 13.7322,5.99007 0.58655,0.59708 1.361406,0.8965 2.136262,0.8965 z m -7.634522,8.08364 c 0.756142,0 1.512868,-0.28421 2.095909,-0.85555 1.180706,-1.1579 1.19942,-3.05323 0.0421,-4.23452 -2.715797,-2.77018 -6.654988,-4.49066 -10.279556,-4.49066 -4.24e-4,0 -0.0013,0 -0.0017,0 h -0.140938 c -4.24e-4,0 -0.0013,0 -0.0017,0 -3.649716,0 -7.603531,1.72106 -10.319329,4.49066 -1.15731,1.18129 -1.138596,3.07662 0.0421,4.23452 1.180706,1.15731 3.076618,1.1386 4.233933,-0.0421 1.605266,-1.63743 3.977202,-2.69475 6.043876,-2.69475 h 4.24e-4 0.142105 4.24e-4 c 2.042697,0 4.399428,1.05732 6.004113,2.69475 0.585964,0.59766 1.361406,0.89766 2.138014,0.89766 z m 0,0"
       id="path1623" />
    <g
       aria-label="Loading..."
       style="font-style:normal;font-variant:normal;font-weight:normal;font-stretch:normal;font-size:13.88183689px;line-height:1.25;font-family:Lato;-inkscape-font-specification:Lato;letter-spacing:0px;word-spacing:0px;fill:#43e234;fill-opacity:1;stroke:none;stroke-width:0.34704593"
       id="text2225">
      <path
         d="m 99.804448,199.28166 q 0.976062,-9.7932 1.561702,-21.79882 0.58564,-12.03816 0.68325,-22.61221 3.31863,0.0651 5.53105,0.0651 1.49663,0 4.78272,-0.0651 -0.42296,5.8564 -0.78085,13.33958 l -0.65071,13.04675 q -0.29282,5.59612 -0.42296,11.12716 l 5.59611,0.0651 q 7.87361,0 10.34631,-0.0325 2.4727,-0.0651 4.88033,-0.19521 -0.29282,3.18848 -0.52057,7.06021 -8.55685,-0.0651 -14.641,-0.0651 l -10.2487,0.0325 z"
         style="font-style:normal;font-variant:normal;font-weight:normal;font-stretch:normal;font-size:66.63282013px;font-family:'Eras Demi ITC';-inkscape-font-specification:'Eras Demi ITC';fill:#43e234;fill-opacity:1;stroke-width:0.34704593"
         id="path2237" />
      <path
         d="m 153.03262,165.41215 q 3.74159,0 7.15782,1.13874 3.44877,1.10621 5.82387,3.31863 2.40763,2.17988 3.61144,5.36837 1.20382,3.15594 1.20382,6.66978 0,3.70906 -1.26889,7.15783 -1.26889,3.44877 -3.67652,5.98654 -2.40763,2.50524 -6.01908,3.77412 -3.57891,1.23636 -7.64585,1.23636 -3.77413,0 -7.19036,-1.10621 -3.3837,-1.13875 -5.79133,-3.3837 -2.40763,-2.24495 -3.67652,-5.46598 -1.23635,-3.22102 -1.23635,-6.73486 0,-3.57891 1.13875,-6.83246 1.13874,-3.25356 3.54637,-5.79133 2.44017,-2.53777 6.21429,-3.9368 3.77413,-1.39903 7.80854,-1.39903 z m 0,6.70232 q -2.8306,0 -5.07555,1.39903 -2.21242,1.36649 -3.31863,4.09948 -1.07367,2.73299 -1.07367,5.95401 0,2.83059 0.87846,5.04301 0.911,2.21242 2.9282,3.57891 2.04974,1.36649 4.8478,1.36649 2.86313,0 5.01047,-1.39902 2.17989,-1.43157 3.25356,-4.16456 1.10621,-2.76552 1.10621,-6.08415 0,-2.70045 -0.84592,-4.91286 -0.84593,-2.21242 -2.86313,-3.54638 -1.98467,-1.33396 -4.8478,-1.33396 z"
         style="font-style:normal;font-variant:normal;font-weight:normal;font-stretch:normal;font-size:66.63282013px;font-family:'Eras Demi ITC';-inkscape-font-specification:'Eras Demi ITC';fill:#43e234;fill-opacity:1;stroke-width:0.34704593"
         id="path2239" />
      <path
         d="m 178.86585,173.44843 q 0.4555,-2.34256 0.5531,-3.28609 0.13015,-0.94353 0.42297,-2.86313 4.42483,-1.04114 7.80853,-1.4641 3.3837,-0.42296 6.53965,-0.42296 3.57891,0 6.57218,0.84592 2.99327,0.81339 4.68512,2.63538 1.69185,1.82199 1.69185,5.23823 0,1.85452 -0.52057,9.46784 -0.52057,7.58079 -0.61818,15.68214 -2.4727,-0.0651 -4.55497,-0.0651 -1.98467,0 -4.65259,0.0651 0.42296,-3.9368 0.68325,-9.10995 l 0.42296,-8.10136 q -1.23635,0.81339 -1.88706,1.13875 -0.65071,0.32535 -1.4641,0.61817 -0.81339,0.26029 -2.86313,0.84593 -2.04974,0.5531 -3.28609,0.97606 -1.23635,0.42297 -2.24496,0.97607 -0.97606,0.52057 -1.65931,1.20382 -0.68325,0.65071 -1.0086,1.39902 -0.29282,0.71579 -0.29282,1.56171 0,1.3665 0.78085,2.3751 0.81339,0.97606 2.01721,1.36649 1.20381,0.39043 2.83059,0.39043 1.04114,0 2.17988,-0.16268 1.17128,-0.16268 3.12342,-0.81339 -0.68325,1.85453 -1.59425,5.53105 -2.31002,0.39042 -3.67651,0.48803 -1.3665,0.0976 -2.53778,0.0976 -4.09948,0 -6.73486,-1.10621 -2.63538,-1.10621 -3.90427,-3.51384 -1.23635,-2.40763 -1.23635,-4.8478 0,-1.39903 0.48804,-2.76552 0.48803,-1.3665 1.43156,-2.50524 0.94353,-1.13875 2.44017,-2.17988 1.49663,-1.07368 4.32723,-2.04974 2.83059,-1.00861 7.48318,-2.01721 1.23635,-0.26028 2.5703,-0.61817 1.33396,-0.39043 2.11482,-0.74832 0.81338,-0.35789 1.39902,-0.911 0.58564,-0.58564 0.84593,-1.20381 0.29282,-0.61818 0.29282,-1.26889 0,-1.26889 -0.84593,-2.14735 -0.81338,-0.87846 -2.14734,-1.20381 -1.30142,-0.35789 -2.89567,-0.35789 -5.92147,0 -13.07929,2.83059 z"
         style="font-style:normal;font-variant:normal;font-weight:normal;font-stretch:normal;font-size:66.63282013px;font-family:'Eras Demi ITC';-inkscape-font-specification:'Eras Demi ITC';fill:#43e234;fill-opacity:1;stroke-width:0.34704593"
         id="path2241" />
      <path
         d="m 247.74363,199.28166 q -2.70046,-0.0651 -4.19709,-0.0651 -1.62678,0 -4.48991,0.0651 l 0.29282,-5.66118 q -1.43156,1.85452 -2.4727,2.86312 -1.0086,1.00861 -2.53777,1.88707 -1.49664,0.84592 -3.25356,1.26888 -1.75692,0.42297 -3.64398,0.42297 -3.12341,0 -5.8564,-1.13875 -2.73299,-1.13874 -4.65259,-3.18848 -1.91959,-2.08228 -2.83059,-4.91287 -0.911,-2.86313 -0.911,-5.95401 0,-4.26216 1.62678,-8.29657 1.62678,-4.06694 4.45737,-6.57218 2.8306,-2.50524 6.40951,-3.54637 3.57891,-1.04114 7.67839,-1.04114 2.96074,0 6.70232,0.5531 0.22775,-4.22962 0.22775,-8.88221 v -2.21241 q 3.05835,0.0651 4.68512,0.0651 2.11481,0 4.7502,-0.0651 -0.71579,8.26403 -1.3665,22.5146 -0.61817,14.21804 -0.61817,21.89643 z m -8.03629,-27.13465 q -2.44016,-0.65071 -4.68512,-0.65071 -2.57031,0 -4.91287,0.71578 -2.34256,0.71578 -4.16455,2.44017 -1.78945,1.72438 -2.76552,4.42483 -0.97607,2.70045 -0.97607,5.20569 0,2.50524 0.87846,4.58751 0.911,2.08228 2.79806,3.2861 1.88706,1.20381 4.26216,1.20381 1.78946,0 3.25356,-0.61817 1.4641,-0.65072 2.66791,-1.95214 1.20382,-1.33396 2.01721,-3.41623 0.84592,-2.08228 1.20381,-5.53105 0.22775,-2.53777 0.42296,-9.69559 z"
         style="font-style:normal;font-variant:normal;font-weight:normal;font-stretch:normal;font-size:66.63282013px;font-family:'Eras Demi ITC';-inkscape-font-specification:'Eras Demi ITC';fill:#43e234;fill-opacity:1;stroke-width:0.34704593"
         id="path2243" />
      <path
         d="m 257.50429,160.53181 q 0.13014,-3.35116 0.13014,-5.14061 v -1.04114 q 2.96074,0.0651 4.81526,0.0651 2.53778,0 4.71766,-0.0651 -0.0976,0.81339 -0.13014,1.85452 l -0.16268,4.32723 q -2.4727,-0.0651 -4.55498,-0.0651 -2.08227,0 -4.81526,0.0651 z m -1.75692,38.74985 q 0.48803,-4.88033 0.68324,-8.16642 0.32536,-5.20569 0.55311,-12.00562 0.26028,-6.79993 0.35789,-12.91662 3.18849,0.0651 4.78273,0.0651 1.4641,0 4.75019,-0.0651 -0.4555,5.66119 -0.74832,10.80181 -0.26028,5.14061 -0.39043,11.77787 -0.13014,6.63725 -0.13014,10.50898 -2.96073,-0.0651 -4.75019,-0.0651 -1.69185,0 -5.10808,0.0651 z"
         style="font-style:normal;font-variant:normal;font-weight:normal;font-stretch:normal;font-size:66.63282013px;font-family:'Eras Demi ITC';-inkscape-font-specification:'Eras Demi ITC';fill:#43e234;fill-opacity:1;stroke-width:0.34704593"
         id="path2245" />
      <path
         d="m 273.3491,199.28166 q 0.74832,-7.38557 1.23635,-16.59313 0.52057,-9.20756 0.58564,-16.49553 2.99327,0.0651 4.78273,0.0651 2.11481,0 4.48991,-0.0651 l -0.35789,5.53105 q 1.0086,-1.43157 1.75692,-2.27749 0.78085,-0.84593 1.95213,-1.65932 1.20382,-0.81339 2.53777,-1.30142 1.3665,-0.48803 3.02581,-0.78085 1.69185,-0.29282 3.51384,-0.29282 2.89566,0 5.53104,0.74832 2.66792,0.71578 4.2947,2.31002 1.62678,1.59424 2.14734,3.4813 0.52057,1.88707 0.52057,4.00188 0,0.87846 -0.0976,2.79806 l -0.68325,14.21803 q -0.13014,2.96074 -0.16268,6.3119 -2.57031,-0.0651 -4.3923,-0.0651 -2.4727,0 -4.97794,0.0651 0.26029,-2.83059 0.65071,-9.85827 0.39043,-7.06022 0.39043,-9.33771 0,-2.57031 -0.81339,-4.13201 -0.81339,-1.56171 -2.53777,-2.3751 -1.69185,-0.81339 -3.67652,-0.81339 -1.95213,0 -3.64398,0.74832 -1.69185,0.74832 -2.9282,2.17988 -1.30142,1.4641 -2.01721,3.61145 -0.74832,2.27749 -1.10621,7.51571 -0.32535,4.65259 -0.52057,12.46112 -2.50523,-0.0651 -4.52244,-0.0651 -2.04974,0 -4.97794,0.0651 z"
         style="font-style:normal;font-variant:normal;font-weight:normal;font-stretch:normal;font-size:66.63282013px;font-family:'Eras Demi ITC';-inkscape-font-specification:'Eras Demi ITC';fill:#43e234;fill-opacity:1;stroke-width:0.34704593"
         id="path2247" />
      <path
         d="m 318.60606,206.1792 q 7.3205,2.40763 12.68886,2.40763 2.04974,0 3.87174,-0.52057 1.82199,-0.48803 3.05834,-1.4641 1.23635,-0.94353 1.9196,-2.60284 0.68324,-1.62678 0.91099,-3.80666 0.22775,-2.14735 0.35789,-6.53965 -1.26888,1.72439 -2.27749,2.70045 -1.0086,0.94353 -2.44016,1.72439 -1.39903,0.74831 -3.28609,1.20381 -1.88707,0.48804 -3.96934,0.48804 -2.86313,0 -5.43344,-0.87846 -2.57031,-0.911 -4.58751,-2.8306 -1.98467,-1.9196 -3.02581,-4.81526 -1.04114,-2.9282 -1.04114,-6.08415 0,-4.52244 1.69185,-8.55685 1.72438,-4.03441 5.01048,-6.63725 3.31862,-2.60285 7.06021,-3.57892 3.77413,-0.97606 8.36164,-0.97606 2.53777,0 5.75879,0.32535 3.22102,0.29282 8.52432,1.23635 l -0.74832,10.31378 -0.68325,12.91661 -0.26028,11.68027 q -0.0976,1.98467 -0.48803,3.80666 -0.39043,1.85452 -1.23635,3.31862 -0.84593,1.49664 -2.14735,2.63538 -1.30142,1.13875 -2.96074,1.82199 -1.62677,0.71579 -4.06694,1.17128 -2.40763,0.4555 -5.17315,0.4555 -2.96074,0 -6.73487,-0.39042 -3.77412,-0.39043 -8.23149,-1.4641 z m 23.75095,-33.47909 q -2.83059,-0.58564 -5.23822,-0.58564 -4.22962,0 -6.99515,1.56171 -2.76552,1.52917 -4.26215,4.48991 -1.49664,2.96073 -1.49664,6.27936 0,2.44016 0.911,4.55498 0.91099,2.08227 2.83059,3.15595 1.95213,1.07367 4.29469,1.07367 1.65932,0 3.09088,-0.52057 1.4641,-0.52057 2.63538,-1.59424 1.17128,-1.07368 2.04974,-2.66792 0.911,-1.59424 1.26889,-3.57891 0.39042,-2.0172 0.58564,-5.01048 0.19521,-3.0258 0.32535,-7.15782 z"
         style="font-style:normal;font-variant:normal;font-weight:normal;font-stretch:normal;font-size:66.63282013px;font-family:'Eras Demi ITC';-inkscape-font-specification:'Eras Demi ITC';fill:#43e234;fill-opacity:1;stroke-width:0.34704593"
         id="path2249" />
      <path
         d="m 358.49464,199.28166 q 0.13015,-2.34256 0.3579,-8.75206 l 4.9454,0.0651 q 0.65071,0 4.26216,-0.0651 -0.16268,2.37509 -0.26029,4.78272 l -0.19521,3.96934 -4.26216,-0.0651 q -0.26028,0 -4.8478,0.0651 z"
         style="font-style:normal;font-variant:normal;font-weight:normal;font-stretch:normal;font-size:66.63282013px;font-family:'Eras Demi ITC';-inkscape-font-specification:'Eras Demi ITC';fill:#43e234;fill-opacity:1;stroke-width:0.34704593"
         id="path2251" />
      <path
         d="m 375.80357,199.28166 q 0.13015,-2.34256 0.3579,-8.75206 l 4.9454,0.0651 q 0.65071,0 4.26216,-0.0651 -0.16268,2.37509 -0.26029,4.78272 l -0.19521,3.96934 -4.26216,-0.0651 q -0.26028,0 -4.8478,0.0651 z"
         style="font-style:normal;font-variant:normal;font-weight:normal;font-stretch:normal;font-size:66.63282013px;font-family:'Eras Demi ITC';-inkscape-font-specification:'Eras Demi ITC';fill:#43e234;fill-opacity:1;stroke-width:0.34704593"
         id="path2253" />
      <path
         d="m 393.11247,199.28166 q 0.13015,-2.34256 0.35789,-8.75206 l 4.94541,0.0651 q 0.65071,0 4.26216,-0.0651 -0.16268,2.37509 -0.26029,4.78272 l -0.19521,3.96934 -4.26216,-0.0651 q -0.26028,0 -4.8478,0.0651 z"
         style="font-style:normal;font-variant:normal;font-weight:normal;font-stretch:normal;font-size:66.63282013px;font-family:'Eras Demi ITC';-inkscape-font-specification:'Eras Demi ITC';fill:#43e234;fill-opacity:1;stroke-width:0.34704593"
         id="path2255" />
    </g>
  </g>
</svg>
