<svg height="480pt" viewBox="0 -8 480 480" width="480pt" xmlns="http://www.w3.org/2000/svg"><path d="m8 464h32c4.417969 0 8-3.582031 8-8v-16c0-13.253906 10.746094-24 24-24h256c13.253906 0 24 10.746094 24 24v16c0 4.417969 3.582031 8 8 8h32c4.417969 0 8-3.582031 8-8v-160c-.042969-10.132812-6.445312-19.148438-16-22.527344v-73.472656c-.027344-22.082031-17.917969-39.972656-40-40h-288c-22.082031.027344-39.972656 17.917969-40 40v73.472656c-9.554688 3.378906-15.9570312 12.394532-16 22.527344v160c0 4.417969 3.582031 8 8 8zm24-264c0-13.253906 10.746094-24 24-24h288c13.253906 0 24 10.746094 24 24v72h-24.207031c5.292969-6.882812 8.175781-15.316406 8.207031-24-.027344-22.082031-17.917969-39.972656-40-40h-64c-22.082031.027344-39.972656 17.917969-40 40 .03125 8.683594 2.914062 17.117188 8.207031 24h-32.414062c5.292969-6.882812 8.175781-15.316406 8.207031-24-.027344-22.082031-17.917969-39.972656-40-40h-64c-22.082031.027344-39.972656 17.917969-40 40 .03125 8.683594 2.914062 17.117188 8.207031 24h-24.207031zm304 48c0 13.253906-10.746094 24-24 24h-64c-13.253906 0-24-10.746094-24-24s10.746094-24 24-24h64c13.253906 0 24 10.746094 24 24zm-160 0c0 13.253906-10.746094 24-24 24h-64c-13.253906 0-24-10.746094-24-24s10.746094-24 24-24h64c13.253906 0 24 10.746094 24 24zm-160 88h40c4.417969 0 8-3.582031 8-8s-3.582031-8-8-8h-40v-24c0-4.417969 3.582031-8 8-8h352c4.417969 0 8 3.582031 8 8v56h-368zm0 32h368v80h-16v-8c-.027344-22.082031-17.917969-39.972656-40-40h-256c-22.082031.027344-39.972656 17.917969-40 40v8h-16zm0 0"/><path d="m472 448h-16v-408c-.027344-22.082031-17.917969-39.9726562-40-40h-24c-19 .0234375-35.371094 13.386719-39.199219 32h-8.800781c-4.417969 0-8 3.582031-8 8v29.199219l-30.246094 37.800781c-1.925781 2.402344-2.300781 5.691406-.96875 8.464844 1.335938 2.773437 4.136719 4.535156 7.214844 4.535156h17.136719c3.589843 14.113281 16.300781 23.992188 30.863281 23.992188s27.273438-9.878907 30.863281-23.992188h17.136719c3.078125 0 5.878906-1.761719 7.214844-4.535156 1.332031-2.773438.957031-6.0625-.96875-8.464844l-30.246094-37.800781v-29.199219c0-4.417969-3.582031-8-8-8h-6.527344c3.378906-9.554688 12.394532-15.957031 22.527344-16h24c13.253906 0 24 10.746094 24 24v408h-16c-4.417969 0-8 3.582031-8 8s3.582031 8 8 8h48c4.417969 0 8-3.582031 8-8s-3.582031-8-8-8zm-120-400h16v16h-16zm8 80c-5.714844-.003906-10.992188-3.050781-13.847656-8h27.695312c-2.855468 4.949219-8.132812 7.996094-13.847656 8zm12.160156-48 19.199219 24h-62.710937l19.199218-24zm0 0"/><path d="m96 320h-8c-4.417969 0-8 3.582031-8 8s3.582031 8 8 8h8c4.417969 0 8-3.582031 8-8s-3.582031-8-8-8zm0 0"/></svg>