<?xml version="1.0" encoding="UTF-8" standalone="no"?>
<!-- Created with Inkscape (http://www.inkscape.org/) -->

<svg
   xmlns:dc="http://purl.org/dc/elements/1.1/"
   xmlns:cc="http://creativecommons.org/ns#"
   xmlns:rdf="http://www.w3.org/1999/02/22-rdf-syntax-ns#"
   xmlns:svg="http://www.w3.org/2000/svg"
   xmlns="http://www.w3.org/2000/svg"
   xmlns:xlink="http://www.w3.org/1999/xlink"
   xmlns:sodipodi="http://sodipodi.sourceforge.net/DTD/sodipodi-0.dtd"
   xmlns:inkscape="http://www.inkscape.org/namespaces/inkscape"
   width="1493.1035"
   height="294.88693"
   viewBox="0 0 395.0503 78.022169"
   version="1.1"
   id="svg845"
   inkscape:version="0.92.3 (2405546, 2018-03-11)"
   sodipodi:docname="bx-logo.svg">
  <defs
     id="defs839">
    <linearGradient
       y2="256.00034"
       y1="256.00034"
       x2="511.98407"
       x1="0.0010737195"
       gradientUnits="userSpaceOnUse"
       id="linearGradient5939"
       gradientTransform="matrix(0.14970801,0,0,0.14970801,14.236301,141.27485)">
      <stop
         id="stop5927"
         stop-color="#00f2fe"
         offset="0" />
      <stop
         id="stop5929"
         stop-color="#03effe"
         offset=".0208" />
      <stop
         id="stop5931"
         stop-color="#24d2fe"
         offset="0.36414331" />
      <stop
         id="stop5933"
         stop-color="#3cbdfe"
         offset=".5538" />
      <stop
         id="stop5935"
         stop-color="#4ab0fe"
         offset=".7956" />
      <stop
         id="stop5937"
         stop-color="#4facfe"
         offset="1" />
    </linearGradient>
    <linearGradient
       gradientTransform="matrix(0.14970801,0,0,0.14970801,14.236301,141.27485)"
       id="a"
       gradientUnits="userSpaceOnUse"
       x1="0.0010737195"
       x2="511.98407"
       y1="256.00034"
       y2="256.00034">
      <stop
         offset="0"
         stop-color="#00f2fe"
         id="stop1610" />
      <stop
         offset=".0208"
         stop-color="#03effe"
         id="stop1612" />
      <stop
         offset=".2931"
         stop-color="#24d2fe"
         id="stop1614" />
      <stop
         offset=".5538"
         stop-color="#3cbdfe"
         id="stop1616" />
      <stop
         offset=".7956"
         stop-color="#4ab0fe"
         id="stop1618" />
      <stop
         offset="1"
         stop-color="#4facfe"
         id="stop1620" />
    </linearGradient>
    <linearGradient
       inkscape:collect="always"
       xlink:href="#linearGradient5939"
       id="linearGradient5925"
       x1="363.2193"
       y1="161.22705"
       x2="109.84778"
       y2="161.22707"
       gradientUnits="userSpaceOnUse"
       gradientTransform="translate(-11.75986,18.976137)" />
    <linearGradient
       inkscape:collect="always"
       xlink:href="#a"
       id="linearGradient5953"
       gradientUnits="userSpaceOnUse"
       gradientTransform="matrix(0.14970801,0,0,0.14970801,14.236301,141.27485)"
       x1="0.0010737195"
       y1="256.00034"
       x2="511.98407"
       y2="256.00034" />
  </defs>
  <sodipodi:namedview
     id="base"
     pagecolor="#ffffff"
     bordercolor="#666666"
     borderopacity="1.0"
     inkscape:pageopacity="0.0"
     inkscape:pageshadow="2"
     inkscape:zoom="1"
     inkscape:cx="730.32074"
     inkscape:cy="42.815315"
     inkscape:document-units="mm"
     inkscape:current-layer="layer1"
     showgrid="false"
     units="px"
     fit-margin-top="0"
     fit-margin-left="0"
     fit-margin-right="0"
     fit-margin-bottom="0"
     inkscape:window-width="1920"
     inkscape:window-height="1017"
     inkscape:window-x="-8"
     inkscape:window-y="-8"
     inkscape:window-maximized="1" />
  <metadata
     id="metadata842">
    <rdf:RDF>
      <cc:Work
         rdf:about="">
        <dc:format>image/svg+xml</dc:format>
        <dc:type
           rdf:resource="http://purl.org/dc/dcmitype/StillImage" />
        <dc:title></dc:title>
      </cc:Work>
    </rdf:RDF>
  </metadata>
  <g
     inkscape:groupmode="layer"
     id="layer2"
     inkscape:label="bg"
     style="display:none">
    <path
       style="opacity:0.16400003;fill:#000000;fill-opacity:1"
       d="m 66.28339,288.58028 c -17.619165,-2.57754 -33.369226,-17.93852 -36.701808,-35.79515 -0.598393,-3.20631 -1.00528,-28.28694 -1.00528,-61.96584 v -56.57935 l -5.25,5.10125 c -5.745126,5.58236 -8.531441,7.33043 -11.684258,7.33043 -1.9752809,0 -2.0657419,-0.53667 -2.0657419,-12.25507 v -12.25507 l 36.9999999,-36.989863 37,-36.989864 v 15.506298 15.506298 l -16.516886,16.488634 -16.516887,16.488637 0.266887,69.57907 0.266886,69.57908 3.026436,4.89449 c 1.850875,2.99332 4.885478,6.04385 7.812473,7.85347 4.059562,2.50983 6.066776,3.0262 13.223565,3.40184 l 8.437526,0.44285 v 10.8746 10.8746 l -5.75,-0.12194 c -3.1625,-0.0671 -8.35681,-0.5033 -11.542912,-0.9694 z"
       id="path5956"
       inkscape:connector-curvature="0"
       transform="scale(0.26458333)" />
    <rect
       style="opacity:1;fill:#333333;fill-opacity:1;stroke-width:0.32831493"
       id="rect5962"
       width="407.72293"
       height="91.545837"
       x="-5.0270834"
       y="-5.3215823"
       rx="12.831584" />
  </g>
  <g
     inkscape:label="Layer 1"
     inkscape:groupmode="layer"
     id="layer1"
     transform="translate(-14.236535,-141.27483)">
    <path
       inkscape:connector-curvature="0"
       style="fill:url(#linearGradient5953);stroke-width:0.149708"
       d="m 90.00025,179.32992 c -0.583627,0.58012 -1.347373,0.87018 -2.109948,0.87018 -0.769593,0 -1.538601,-0.29474 -2.123985,-0.88363 l -2.367255,-2.38246 v 14.04507 c 0,1.65322 -1.340358,2.99357 -2.994163,2.99357 -1.65322,0 -2.993573,-1.34035 -2.993573,-2.99357 V 170.90593 L 54.63992,147.98481 c -1.117546,-0.95731 -2.76258,-0.96024 -3.884222,-0.008 l -23.050357,23.00514 c 4.25e-4,0.0286 0.0042,0.0573 0.0042,0.0866 v 34.8808 c 0,3.30176 2.686559,5.98773 5.988322,5.98773 h 37.725233 c 3.301763,0 5.988322,-2.68597 5.988322,-5.98773 0,-1.65381 1.340353,-2.99417 2.993573,-2.99417 1.653805,0 2.994163,1.34036 2.994163,2.99417 0,6.60352 -5.372528,11.97605 -11.976058,11.97605 h -37.72525 c -6.603526,0 -11.976058,-5.37253 -11.976058,-11.97605 v -28.9954 l -2.376027,2.37135 c -1.170765,1.16784 -3.066092,1.16666 -4.234516,-0.004 -1.167839,-1.17018 -1.166085,-3.06609 0.0041,-4.23452 l 31.481279,-31.41894 c 0.04036,-0.0398 0.08128,-0.0789 0.123976,-0.11696 3.419308,-3.04445 8.567277,-3.03334 11.973715,0.0251 0.0421,0.038 0.08363,0.0772 0.123394,0.11754 l 31.196575,31.40242 c 1.1655,1.17311 1.159067,3.06902 -0.01405,4.23393 z m -40.28432,21.22989 c 0,1.6538 1.340353,2.99416 2.994158,2.99416 1.653806,0 2.994163,-1.34036 2.994163,-2.99416 0,-1.65381 -1.340357,-2.99417 -2.994163,-2.99417 -1.653219,0 -2.994158,1.34036 -2.994158,2.99417 z m 18.712915,-13.92226 c 0.757313,0 1.515207,-0.28538 2.098252,-0.8579 1.179534,-1.15907 1.196492,-3.05439 0.03802,-4.23393 -4.929253,-5.01931 -11.323424,-7.78306 -18.004724,-7.78248 -6.682475,0 -13.077232,2.76375 -18.004728,7.78248 -1.159068,1.17954 -1.141524,3.07545 0.03858,4.23393 1.179534,1.15848 3.074861,1.14152 4.233928,-0.0386 3.792996,-3.86258 8.669618,-5.99007 13.732204,-5.99007 5.061414,0 9.938037,2.12749 13.7322,5.99007 0.58655,0.59708 1.361406,0.8965 2.136262,0.8965 z m -7.634522,8.08364 c 0.756142,0 1.512868,-0.28421 2.095909,-0.85555 1.180706,-1.1579 1.19942,-3.05323 0.0421,-4.23452 -2.715797,-2.77018 -6.654988,-4.49066 -10.279556,-4.49066 -4.24e-4,0 -0.0013,0 -0.0017,0 h -0.140938 c -4.24e-4,0 -0.0013,0 -0.0017,0 -3.649716,0 -7.603531,1.72106 -10.319329,4.49066 -1.15731,1.18129 -1.138596,3.07662 0.0421,4.23452 1.180706,1.15731 3.076618,1.1386 4.233933,-0.0421 1.605266,-1.63743 3.977202,-2.69475 6.043876,-2.69475 h 4.24e-4 0.142105 4.24e-4 c 2.042697,0 4.399428,1.05732 6.004113,2.69475 0.585964,0.59766 1.361406,0.89766 2.138014,0.89766 z m 0,0"
       id="path1623" />
    <g
       aria-label="Buildix"
       style="font-style:normal;font-variant:normal;font-weight:normal;font-stretch:normal;font-size:10.58333302px;line-height:1.25;font-family:Lato;-inkscape-font-specification:Lato;letter-spacing:0px;word-spacing:0px;fill:url(#linearGradient5925);fill-opacity:1;stroke:none;stroke-width:0.26458332"
       id="text5917">
      <path
         d="m 97.37562,210.67191 q 0.818211,-9.12951 1.119656,-14.94311 0.301446,-5.81359 0.775147,-19.85236 0.473701,-14.03876 0.473701,-19.29253 0,-1.59336 -0.04306,-4.69395 5.42603,0.0861 9.00031,0.0861 3.61735,0 8.91419,-0.12919 5.29683,-0.12919 8.74193,-0.12919 4.82313,0 7.2347,0.43064 2.45463,0.38757 4.34943,1.20578 1.8948,0.81821 3.18671,2.02399 1.29191,1.16272 2.19625,2.79914 0.9474,1.59336 1.37804,3.48816 0.4737,1.85174 0.4737,3.78961 0,2.41156 -0.60289,4.60781 -0.55983,2.15319 -1.67949,3.9188 -1.07659,1.72255 -2.54075,2.97139 -1.46417,1.20579 -2.79914,1.89481 -1.33498,0.68902 -3.57429,1.46416 2.02399,0.43064 3.22978,0.86128 1.20578,0.38757 2.58382,1.24884 1.37804,0.81821 2.58382,2.15319 1.24885,1.29191 1.98093,2.75607 0.73208,1.46417 1.11966,3.27284 0.43063,1.76562 0.43063,3.70348 0,4.13412 -1.80867,7.57921 -1.76561,3.4451 -4.90926,5.46909 -3.14365,1.98093 -7.06245,2.66995 -3.87573,0.64596 -16.53646,0.64596 l -10.42141,-0.0431 z m 14.08183,-34.40789 h 6.93325 q 4.43556,0 5.94279,-0.21532 1.5503,-0.21532 3.22978,-0.81821 1.67948,-0.64596 2.8422,-1.93787 1.16272,-1.33497 1.67949,-2.88527 0.55982,-1.59335 0.55982,-3.22977 0,-1.59336 -0.60289,-3.01446 -0.55982,-1.4211 -1.76561,-2.32544 -1.20578,-0.9474 -2.92833,-1.33498 -1.67948,-0.43063 -4.95232,-0.43063 h -10.33529 z m -1.03353,25.9674 h 9.77546 q 2.97139,0 4.60781,-0.21532 1.67949,-0.25838 3.18672,-0.86127 1.50723,-0.60289 2.3685,-1.29191 0.86127,-0.68902 1.50723,-1.76561 0.68902,-1.0766 1.07659,-2.41157 0.38757,-1.37804 0.38757,-2.8422 0,-1.98093 -0.68902,-3.48816 -0.68901,-1.50723 -2.06705,-2.58382 -1.33498,-1.11966 -3.14365,-1.59336 -1.80868,-0.51676 -5.51215,-0.51676 h -10.85206 z"
         style="font-style:normal;font-variant:normal;font-weight:normal;font-stretch:normal;font-size:88.19444275px;font-family:'Eras Demi ITC';-inkscape-font-specification:'Eras Demi ITC';fill:url(#linearGradient5925);fill-opacity:1;stroke-width:0.26458332"
         id="path6643" />
      <path
         d="m 198.66143,210.67191 q -3.78961,-0.0861 -5.8136,-0.0861 -2.54076,0 -5.77054,0.0861 l 0.0861,-7.14858 q -1.20578,1.80868 -2.11012,2.92833 -0.90434,1.0766 -2.3685,2.15319 -1.46417,1.03353 -3.18672,1.67948 -1.72254,0.60289 -3.96186,0.99047 -2.19624,0.43063 -4.69394,0.43063 -4.82313,0 -8.39742,-1.37803 -3.57429,-1.42111 -5.68441,-4.26331 -2.06705,-2.8422 -2.06705,-8.13904 v -0.90434 l 0.68902,-11.11043 0.64595,-14.64165 q 0.0431,-1.76561 0.0431,-4.3925 4.09106,0.0861 6.41649,0.0861 2.45464,0 5.94279,-0.0861 l -1.4211,19.63704 q -0.12919,2.28238 -0.21532,3.87574 -0.0431,1.55029 -0.0431,2.23931 0,3.10058 0.90434,5.16764 0.9474,2.02399 3.22977,3.10059 2.32544,1.07659 4.95233,1.07659 2.49769,0 4.73701,-0.9474 2.02399,-0.86128 3.44509,-2.41157 1.46417,-1.55029 2.45463,-4.17718 0.73208,-1.8948 1.11966,-5.25377 0.30144,-2.3685 0.55983,-8.13904 0.3445,-6.97631 0.4737,-14.16795 4.2633,0.0861 6.50261,0.0861 2.54076,0 5.72747,-0.0861 -0.51676,6.15811 -1.07659,15.4168 -0.55983,9.21563 -0.77514,15.24455 -0.21532,5.98585 -0.34451,13.13443 z"
         style="font-style:normal;font-variant:normal;font-weight:normal;font-stretch:normal;font-size:88.19444275px;font-family:'Eras Demi ITC';-inkscape-font-specification:'Eras Demi ITC';fill:url(#linearGradient5925);fill-opacity:1;stroke-width:0.26458332"
         id="path6645" />
      <path
         d="m 211.66666,159.38305 q 0.17225,-4.43556 0.17225,-6.80407 v -1.37803 q 3.9188,0.0861 6.37343,0.0861 3.35897,0 6.24424,-0.0861 -0.12919,1.07659 -0.17226,2.45463 l -0.21532,5.72747 q -3.27284,-0.0861 -6.02891,-0.0861 -2.75608,0 -6.37343,0.0861 z m -2.32544,51.28886 q 0.64596,-6.45956 0.90434,-10.80899 0.43063,-6.89019 0.73208,-15.8905 0.34451,-9.00032 0.4737,-17.09629 4.22024,0.0861 6.33036,0.0861 1.93787,0 6.2873,-0.0861 -0.60289,7.49308 -0.99046,14.29715 -0.34451,6.80406 -0.51677,15.58905 -0.17225,8.785 -0.17225,13.90958 -3.9188,-0.0861 -6.2873,-0.0861 -2.23931,0 -6.761,0.0861 z"
         style="font-style:normal;font-variant:normal;font-weight:normal;font-stretch:normal;font-size:88.19444275px;font-family:'Eras Demi ITC';-inkscape-font-specification:'Eras Demi ITC';fill:url(#linearGradient5925);fill-opacity:1;stroke-width:0.26458332"
         id="path6647" />
      <path
         d="m 232.98319,210.67191 q 0.64596,-7.27777 1.55029,-26.13967 0.94741,-18.90496 1.16272,-32.64228 4.47863,0.0861 6.37343,0.0861 2.54076,0 6.20117,-0.0861 l -1.03353,15.71825 -1.50723,35.05385 -0.17225,8.00985 q -3.53122,-0.0861 -5.98585,-0.0861 -0.81821,0 -6.58875,0.0861 z"
         style="font-style:normal;font-variant:normal;font-weight:normal;font-stretch:normal;font-size:88.19444275px;font-family:'Eras Demi ITC';-inkscape-font-specification:'Eras Demi ITC';fill:url(#linearGradient5925);fill-opacity:1;stroke-width:0.26458332"
         id="path6649" />
      <path
         d="m 300.89464,210.67191 q -3.57429,-0.0861 -5.55522,-0.0861 -2.15318,0 -5.94279,0.0861 l 0.38757,-7.49309 q -1.8948,2.45463 -3.27284,3.78961 -1.33497,1.33497 -3.35896,2.49769 -1.98093,1.11966 -4.30637,1.67949 -2.32544,0.55982 -4.82314,0.55982 -4.13411,0 -7.75146,-1.50723 -3.61735,-1.50722 -6.15811,-4.22024 -2.54076,-2.75607 -3.74654,-6.50261 -1.20578,-3.78961 -1.20578,-7.88066 0,-5.64134 2.15318,-10.98124 2.15318,-5.38296 5.89973,-8.69887 3.74654,-3.3159 8.48354,-4.69394 4.73701,-1.37804 10.16303,-1.37804 3.9188,0 8.87113,0.73208 0.30144,-5.59828 0.30144,-11.75638 v -2.92834 q 4.04799,0.0861 6.20117,0.0861 2.79914,0 6.2873,-0.0861 -0.9474,10.93818 -1.80867,29.80008 -0.81821,18.81883 -0.81821,28.98187 z m -10.63673,-35.91512 q -3.22978,-0.86128 -6.20118,-0.86128 -3.40203,0 -6.50261,0.9474 -3.10059,0.9474 -5.51216,3.22978 -2.3685,2.28238 -3.66041,5.85666 -1.29191,3.57429 -1.29191,6.89019 0,3.31591 1.16272,6.07198 1.20578,2.75608 3.70348,4.34944 2.49769,1.59335 5.64134,1.59335 2.3685,0 4.30637,-0.81821 1.93786,-0.86127 3.53122,-2.58382 1.59336,-1.76561 2.66995,-4.52169 1.11966,-2.75607 1.59336,-7.32082 0.30144,-3.35897 0.55983,-12.83298 z"
         style="font-style:normal;font-variant:normal;font-weight:normal;font-stretch:normal;font-size:88.19444275px;font-family:'Eras Demi ITC';-inkscape-font-specification:'Eras Demi ITC';fill:url(#linearGradient5925);fill-opacity:1;stroke-width:0.26458332"
         id="path6651" />
      <path
         d="m 313.81374,159.38305 q 0.17225,-4.43556 0.17225,-6.80407 v -1.37803 q 3.9188,0.0861 6.37343,0.0861 3.35897,0 6.24424,-0.0861 -0.1292,1.07659 -0.17226,2.45463 l -0.21532,5.72747 q -3.27284,-0.0861 -6.02891,-0.0861 -2.75608,0 -6.37343,0.0861 z m -2.32544,51.28886 q 0.64596,-6.45956 0.90434,-10.80899 0.43063,-6.89019 0.73208,-15.8905 0.34451,-9.00032 0.4737,-17.09629 4.22024,0.0861 6.33036,0.0861 1.93787,0 6.2873,-0.0861 -0.60289,7.49308 -0.99046,14.29715 -0.34451,6.80406 -0.51677,15.58905 -0.17225,8.785 -0.17225,13.90958 -3.9188,-0.0861 -6.2873,-0.0861 -2.23931,0 -6.761,0.0861 z"
         style="font-style:normal;font-variant:normal;font-weight:normal;font-stretch:normal;font-size:88.19444275px;font-family:'Eras Demi ITC';-inkscape-font-specification:'Eras Demi ITC';fill:url(#linearGradient5925);fill-opacity:1;stroke-width:0.26458332"
         id="path6653" />
      <path
         d="m 329.79037,210.67191 q 8.48355,-11.19656 17.22548,-23.29746 l -3.61735,-5.8136 q -1.76561,-2.8422 -4.69394,-7.27776 l -4.8662,-7.40696 q 4.73701,0.0861 7.57921,0.0861 3.74654,0 6.67487,-0.0861 1.93787,3.83267 4.43556,8.39742 l 3.14365,5.94279 9.47401,-14.34021 q 3.05753,0.0861 6.54569,0.0861 3.27284,0 6.761,-0.0861 l -6.71794,8.82806 q -2.28238,3.05752 -8.52661,11.54107 l 6.2873,10.20609 8.48355,13.22056 q -3.70348,-0.0861 -6.84713,-0.0861 -3.78961,0 -7.36389,0.0861 -2.62689,-5.3399 -5.25377,-9.81853 -2.58383,-4.47862 -3.83267,-6.97631 -1.76561,2.79914 -4.73701,7.1055 -2.92833,4.30637 -6.33036,9.68934 -3.61735,-0.0861 -6.54568,-0.0861 -3.27284,0 -7.27777,0.0861 z"
         style="font-style:normal;font-variant:normal;font-weight:normal;font-stretch:normal;font-size:88.19444275px;font-family:'Eras Demi ITC';-inkscape-font-specification:'Eras Demi ITC';fill:url(#linearGradient5925);fill-opacity:1;stroke-width:0.26458332"
         id="path6655" />
    </g>
    <g
       aria-label="2"
       style="font-style:normal;font-variant:normal;font-weight:normal;font-stretch:normal;font-size:6.51968241px;line-height:1.25;font-family:Lato;-inkscape-font-specification:Lato;letter-spacing:0px;word-spacing:0px;fill:#43e234;fill-opacity:1;stroke:none;stroke-width:0.16299206"
       id="text5943">
      <path
         d="m 409.28683,210.62582 v 8.67118 h -28.62141 v -7.23685 q 3.32504,-2.67307 6.32409,-5.15055 2.99906,-2.54268 6.71528,-5.93291 1.82551,-1.62992 2.67307,-3.52063 0.84755,-1.89071 0.84755,-3.58583 0,-1.76031 -0.84755,-2.73826 -0.71717,-0.71717 -7.56284,-0.71717 l -4.36818,0.0652 q -0.84756,0.0652 -2.0863,0.0652 -0.19559,-0.91275 -0.45638,-3.58582 -0.19559,-2.67307 -0.19559,-3.97701 7.36724,-1.30393 12.257,-1.30393 6.65008,0 10.56189,2.54267 3.97701,2.47748 3.97701,8.60598 0,2.93386 -1.49953,6.06331 -1.49953,3.06425 -5.86772,6.45449 -2.93385,2.28188 -7.69322,5.41133 z"
         style="font-style:normal;font-variant:normal;font-weight:normal;font-stretch:normal;font-size:65.19683075px;font-family:Lalezar;-inkscape-font-specification:Lalezar;fill:#43e234;fill-opacity:1;stroke-width:0.16299206"
         id="path6658" />
    </g>
  </g>
</svg>
