<svg viewBox="-8 0 487 487.95918" xmlns="http://www.w3.org/2000/svg"><path d="m394.359375 487.230469 42.875.730469h.132813c4.449218-.011719 8.066406-3.589844 8.117187-8.039063v-214.847656l12.207031 10.648437c1.445313 1.261719 3.296875 1.957032 5.214844 1.957032 1.078125 0 2.140625-.246094 3.109375-.71875 2.800781-1.324219 4.554687-4.183594 4.46875-7.28125v-64.507813c.074219-2.292969-.863281-4.5-2.558594-6.039063l-227-197.171874c-2.984375-2.613282-7.441406-2.613282-10.433593-.007813l-227.464844 197.171875c-1.695313 1.542969-2.625 3.757812-2.542969 6.046875v64.507813c-.097656 3.097656 1.660156 5.957031 4.464844 7.269531 2.804687 1.316406 6.125.835937 8.441406-1.222657l8.09375-7.125v208.101563c.015625 4.347656 3.488281 7.890625 7.835937 8l46.929688 1.179687c2.160156.054688 4.25-.765624 5.800781-2.269531 1.546875-1.503906 2.425781-3.570312 2.433594-5.730469v-205.222656l302 .820313v205.730469c.003906 4.371093 3.503906 7.9375 7.875 8.019531zm-377.875-278.402344 219.289063-190.242187 218.710937 190.234374v43.320313l-213.65625-185.675781c-2.894531-2.609375-7.289063-2.613282-10.1875-.007813l-214.15625 185.714844zm60.003906 48.132813h-.019531c-2.097656-.0625-4.128906.722656-5.640625 2.171874-1.5 1.4375-2.34375 3.425782-2.34375 5.5v205.039063l-31-.777344v-214.148437l198.308594-171.652344 193.691406 168.089844v220.605468l-27-.445312v-205.839844c-.003906-2.101562-.851563-4.113281-2.347656-5.585937-1.496094-1.472657-3.523438-2.285157-5.621094-2.253907zm0 0"/><path d="m354.484375 479.921875v-83.164063c-.03125-8.585937-3.542969-16.796874-9.730469-22.75l-4.566406-4.855468-17.53125-47.5c-3.445312-9.332032-12.285156-15.570313-22.230469-15.691406h-126.746093c-9.941407.121093-18.777344 6.359374-22.21875 15.683593l-17.257813 46.683594-6.691406 6.242187c-6.992188 6.003907-11.019531 14.761719-11.027344 23.980469v81.371094c.035156 4.441406 3.636719 8.023437 8.078125 8.039063h44.472656c4.417969 0 8.449219-3.621094 8.449219-8.039063v-18.960937h116v18.960937c0 4.417969 4.027344 8.039063 8.445313 8.039063h44.476562c4.441406-.011719 8.042969-3.597657 8.078125-8.039063zm-188.019531-152.738281c1.105468-3.0625 3.96875-5.132813 7.21875-5.222656h126.742187c3.25.089843 6.113281 2.164062 7.214844 5.222656l13.925781 37.777344h-169.027344zm-33.980469 71.367187c.011719-4.570312 2.03125-8.90625 5.527344-11.851562.09375-.078125.199219-.179688.292969-.265625l5.886718-5.472656h185.15625l3.835938 4.121093c.113281.121094.269531.246094.390625.359375 3.113281 2.945313 4.890625 7.03125 4.910156 11.316406v40.867188c-.035156 2.007812-.882813 3.921875-2.34375 5.300781-1.464844 1.378907-3.421875 2.113281-5.433594 2.035157h-190.449219c-2.007812.078124-3.96875-.65625-5.429687-2.035157-1.464844-1.382812-2.308594-3.296875-2.34375-5.308593zm29 73.410157h-29v-11.9375c2 .832031 5.082031.9375 7.773437.9375h21.226563zm148 0v-11h21.226563c2.691406 0 5.773437-.101563 7.773437-.9375v11.9375zm0 0"/><path d="m192.484375 402.960938c0-4.421876-3.582031-8-8-8h-37c-4.417969 0-8 3.578124-8 8v26c0 4.417968 3.582031 8 8 8h37c4.417969 0 8-3.582032 8-8zm-37 8h22v10h-22zm0 0"/><path d="m330.484375 402.960938c0-4.421876-3.582031-8-8-8h-37c-4.417969 0-8 3.578124-8 8v26c0 4.417968 3.582031 8 8 8h37c4.417969 0 8-3.582032 8-8zm-37 8h22v10h-22zm0 0"/><path d="m211.546875 422.960938h47.875c4.417969 0 8-3.582032 8-8 0-4.421876-3.582031-8-8-8h-47.875c-4.417969 0-8 3.578124-8 8 0 4.417968 3.582031 8 8 8zm0 0"/></svg>